<svg width="2480" height="3508" viewBox="0 0 2480 3508" fill="none" xmlns="http://www.w3.org/2000/svg">
<g clip-path="url(#clip0_2_8)">
<rect width="2480" height="3508" fill="white"/>
<path d="M1762.46 3312.31L1786.08 3486.4L1975.04 3399.35L1762.46 3312.31Z" fill="url(#paint0_linear_2_8)"/>
<path d="M1762.46 3312.31L1815.61 3002.83L1650.28 3060.86L1762.46 3312.31Z" fill="url(#paint1_linear_2_8)"/>
<path d="M1384.56 3104.38L1479.03 3278.46L1508.56 3172.08L1384.56 3104.38Z" fill="url(#paint2_linear_2_8)"/>
<path d="M1650.28 3060.86L1579.41 3225.27L1762.46 3312.31L1650.28 3060.86Z" fill="url(#paint3_linear_2_8)"/>
<path d="M1508.56 3172.08L1479.03 3278.46L1579.41 3225.27L1508.56 3172.08Z" fill="url(#paint4_linear_2_8)"/>
<path d="M2087.23 3104.38L2282.08 3259.12L2480 3125.64V3066.09L2087.23 3104.38Z" fill="url(#paint5_linear_2_8)"/>
<path d="M2087.23 3104.38L2480 3066.09V2914.55L2293.89 2659.5L2087.23 3104.38Z" fill="url(#paint6_linear_2_8)"/>
<path d="M1508.56 3172.08L1579.41 3225.27L1620.74 3075.36L1508.56 3172.08Z" fill="url(#paint7_linear_2_8)"/>
<path d="M1620.74 3075.36L1579.41 3225.27L1650.28 3060.86L1620.74 3075.36Z" fill="url(#paint8_linear_2_8)"/>
<path d="M1620.74 3075.36L1384.56 3104.38L1508.56 3172.08L1620.74 3075.36Z" fill="url(#paint9_linear_2_8)"/>
<path d="M1349.13 2983.48L1384.56 3104.38L1620.74 3075.36L1349.13 2983.48Z" fill="url(#paint10_linear_2_8)"/>
<path d="M1219.84 3508H1371.97L1343.22 3384.85L1219.84 3508Z" fill="url(#paint11_linear_2_8)"/>
<path d="M1236.94 3384.85L1182.96 3508H1219.84L1343.22 3384.85H1236.94Z" fill="url(#paint12_linear_2_8)"/>
<path d="M2409.37 2054.54L2480 2142.84V2052.49L2409.37 2054.54Z" fill="url(#paint13_linear_2_8)"/>
<path d="M2409.37 2054.54L2480 2052.49V1972.66L2409.37 2054.54Z" fill="url(#paint14_linear_2_8)"/>
<path d="M2406.07 2591.8L2480 2570.92V2541.09L2376.56 2538.6L2406.07 2591.8Z" fill="url(#paint15_linear_2_8)"/>
<path d="M2406.07 2591.8L2480 2610.58V2570.92L2406.07 2591.8Z" fill="url(#paint16_linear_2_8)"/>
<path d="M1371.97 3508H1407.02L1343.23 3384.85L1371.97 3508Z" fill="url(#paint17_linear_2_8)"/>
<path d="M2293.89 2659.5L2480 2914.55V2793.36L2417.89 2635.32L2293.89 2659.5Z" fill="url(#paint18_linear_2_8)"/>
<path d="M2417.89 2635.32L2480 2793.36V2635.32H2417.89Z" fill="url(#paint19_linear_2_8)"/>
<path d="M2400.17 2620.81L2293.89 2659.5L2417.89 2635.31L2400.17 2620.81Z" fill="url(#paint20_linear_2_8)"/>
<path d="M2417.89 2635.32H2480V2610.58L2406.07 2591.8L2417.89 2635.32Z" fill="url(#paint21_linear_2_8)"/>
<path d="M2417.89 2635.31L2406.07 2591.8L2400.17 2620.81L2417.89 2635.31Z" fill="url(#paint22_linear_2_8)"/>
<path d="M2258.46 2572.45L2293.89 2659.5L2400.17 2620.81L2258.46 2572.45Z" fill="url(#paint23_linear_2_8)"/>
<path d="M2406.08 2591.8L2258.46 2572.45L2400.17 2620.81L2406.08 2591.8Z" fill="url(#paint24_linear_2_8)"/>
<path d="M2376.56 2538.6L2258.46 2572.45L2406.08 2591.8L2376.56 2538.6Z" fill="url(#paint25_linear_2_8)"/>
<path d="M2276.17 2398.36L2258.46 2572.45L2376.56 2538.6L2276.17 2398.36Z" fill="url(#paint26_linear_2_8)"/>
<path d="M2276.17 2398.36L2480 2321.86V2185.53L2276.17 2398.36Z" fill="url(#paint27_linear_2_8)"/>
<path d="M1650.28 3060.86L1656.19 2959.31L1620.74 3075.36L1650.28 3060.86Z" fill="url(#paint28_linear_2_8)"/>
<path d="M1656.19 2959.31L1349.13 2983.48L1620.74 3075.36L1656.19 2959.31Z" fill="url(#paint29_linear_2_8)"/>
<path d="M1815.61 3002.83L1656.19 2959.31L1650.28 3060.86L1815.61 3002.83Z" fill="url(#paint30_linear_2_8)"/>
<path d="M2146.26 2611.13L2293.89 2659.5L2258.46 2572.45L2146.26 2611.13Z" fill="url(#paint31_linear_2_8)"/>
<path d="M2081.32 3191.42L1815.61 3002.83L1762.46 3312.31L2081.32 3191.42Z" fill="url(#paint32_linear_2_8)"/>
<path d="M2282.08 3259.12L2087.22 3104.38L2081.32 3191.42L2282.08 3259.12Z" fill="url(#paint33_linear_2_8)"/>
<path d="M2087.23 3104.38L1815.61 3002.83L2081.32 3191.42L2087.23 3104.38Z" fill="url(#paint34_linear_2_8)"/>
<path d="M2282.08 3259.12L2480 3256.42V3225.68L2282.08 3259.12Z" fill="url(#paint35_linear_2_8)"/>
<path d="M2282.08 3259.12L2480 3225.68V3125.64L2282.08 3259.12Z" fill="url(#paint36_linear_2_8)"/>
<path d="M2376.56 2538.6L2480 2541.09V2422.12L2376.56 2538.6Z" fill="url(#paint37_linear_2_8)"/>
<path d="M2276.17 2398.36L2376.56 2538.6L2480 2422.12V2347.27L2276.17 2398.36Z" fill="url(#paint38_linear_2_8)"/>
<path d="M2276.17 2398.36L2480 2347.27V2321.86L2276.17 2398.36Z" fill="url(#paint39_linear_2_8)"/>
<path d="M1479.03 3278.46L1236.94 3384.85H1343.22L1479.03 3278.46Z" fill="url(#paint40_linear_2_8)"/>
<path d="M2252.56 3467.05L2282.08 3259.12L2004.56 3365.5L2252.56 3467.05Z" fill="url(#paint41_linear_2_8)"/>
<path d="M2004.56 3365.5L1762.46 3312.31L1975.04 3399.35L2004.56 3365.5Z" fill="url(#paint42_linear_2_8)"/>
<path d="M2081.32 3191.42L1762.46 3312.31L2004.56 3365.5L2081.32 3191.42Z" fill="url(#paint43_linear_2_8)"/>
<path d="M2004.56 3365.5L2282.08 3259.12L2081.32 3191.42L2004.56 3365.5Z" fill="url(#paint44_linear_2_8)"/>
<path d="M1780.12 3508H1821.77L1786.08 3486.4L1780.12 3508Z" fill="url(#paint45_linear_2_8)"/>
<path d="M1786.08 3486.4L1821.77 3508H2005.38L1986.84 3457.38L1786.08 3486.4Z" fill="url(#paint46_linear_2_8)"/>
<path d="M2005.38 3508H2209.13L2252.56 3467.05L1986.84 3457.38L2005.38 3508Z" fill="url(#paint47_linear_2_8)"/>
<path d="M1786.08 3486.4L1986.84 3457.38L1975.04 3399.35L1786.08 3486.4Z" fill="url(#paint48_linear_2_8)"/>
<path d="M1986.84 3457.38L2252.56 3467.05L2004.56 3365.5L1986.84 3457.38Z" fill="url(#paint49_linear_2_8)"/>
<path d="M1975.04 3399.35L1986.84 3457.38L2004.56 3365.5L1975.04 3399.35Z" fill="url(#paint50_linear_2_8)"/>
<path d="M2209.13 3508H2374.77L2252.56 3467.05L2209.13 3508Z" fill="url(#paint51_linear_2_8)"/>
<path d="M2398.82 3508H2480V3495.21L2398.82 3508Z" fill="url(#paint52_linear_2_8)"/>
<path d="M2252.56 3467.05L2374.77 3508H2381.43L2282.08 3259.12L2252.56 3467.05Z" fill="url(#paint53_linear_2_8)"/>
<path d="M2385.68 3508H2398.82L2480 3495.21V3432.4L2385.68 3508Z" fill="url(#paint54_linear_2_8)"/>
<path d="M2385.01 3508H2385.68L2480 3432.4V3412.12L2385.01 3508Z" fill="url(#paint55_linear_2_8)"/>
<path d="M2282.08 3259.12L2381.43 3508H2385.01L2480 3412.12V3256.42L2282.08 3259.12Z" fill="url(#paint56_linear_2_8)"/>
<path d="M1593.74 3508H1678.6L1632.56 3418.7L1593.74 3508Z" fill="url(#paint57_linear_2_8)"/>
<path d="M1407.02 3508H1593.74L1632.56 3418.7L1343.23 3384.85L1407.02 3508Z" fill="url(#paint58_linear_2_8)"/>
<path d="M1678.6 3508H1780.12L1786.08 3486.4L1632.56 3418.7L1678.6 3508Z" fill="url(#paint59_linear_2_8)"/>
<path d="M1632.56 3418.7L1786.08 3486.4L1762.46 3312.31L1632.56 3418.7Z" fill="url(#paint60_linear_2_8)"/>
<path d="M1632.56 3418.7L1479.03 3278.46L1343.23 3384.85L1632.56 3418.7Z" fill="url(#paint61_linear_2_8)"/>
<path d="M1579.41 3225.27L1632.56 3418.7L1762.46 3312.31L1579.41 3225.27Z" fill="url(#paint62_linear_2_8)"/>
<path d="M1579.41 3225.27L1479.03 3278.46L1632.56 3418.7L1579.41 3225.27Z" fill="url(#paint63_linear_2_8)"/>
<path d="M630.755 -0.00119019L604.496 152.917L739.446 105.551L692.355 -0.00119019H630.755Z" fill="url(#paint64_linear_2_8)"/>
<path d="M692.355 -0.00119019L739.446 105.551L784.941 -0.00119019H692.355Z" fill="url(#paint65_linear_2_8)"/>
<path d="M835.462 -0.00129032L855.126 14.7625L859.224 -0.00129032H835.462Z" fill="url(#paint66_linear_2_8)"/>
<path d="M140.28 -0.0012207L0 94.6071V107.344L382.784 70.0255L294.609 -0.0012207H140.28Z" fill="url(#paint67_linear_2_8)"/>
<path d="M0 107.344V139.754L214.093 433.165L382.784 70.0255L0 107.344Z" fill="url(#paint68_linear_2_8)"/>
<path d="M789.391 -0.00123596L763.555 93.709L855.126 14.7625L835.461 -0.00123596H789.391Z" fill="url(#paint69_linear_2_8)"/>
<path d="M784.941 -0.00119019L739.446 105.551L763.555 93.709L789.39 -0.00119019H784.941Z" fill="url(#paint70_linear_2_8)"/>
<path d="M0 1376.19V1406.77L45.3986 1329.17L0 1376.19Z" fill="url(#paint71_linear_2_8)"/>
<path d="M0 1577.54L55.8392 1558.11L0 1539.93V1577.54Z" fill="url(#paint72_linear_2_8)"/>
<path d="M0 947.332V1133.34L129.25 1127.87L21.2071 930.253L0 947.332Z" fill="url(#paint73_linear_2_8)"/>
<path d="M0 1133.34V1300.05L20.1186 1312.95L129.25 1127.87L0 1133.34Z" fill="url(#paint74_linear_2_8)"/>
<path d="M0 523.026V528.314L146.613 531.841L122.52 488.422L0 523.026Z" fill="url(#paint75_linear_2_8)"/>
<path d="M0 523.026L122.52 488.422L0 457.285V523.026Z" fill="url(#paint76_linear_2_8)"/>
<path d="M10.5541 1329.17L0 1321.47V1338.62L45.3986 1329.17L20.1186 1312.95L10.5541 1329.17Z" fill="url(#paint77_linear_2_8)"/>
<path d="M0 1321.47L10.5541 1329.17L20.1186 1312.95L0 1300.05V1321.47Z" fill="url(#paint78_linear_2_8)"/>
<path d="M0 1321.47L10.5541 1329.17L20.1186 1312.95L0 1300.05V1321.47Z" fill="url(#paint79_linear_2_8)"/>
<path d="M0 1338.62V1376.19L45.3986 1329.17L0 1338.62Z" fill="url(#paint80_linear_2_8)"/>
<path d="M60.855 1414.35L59.266 1405.6L59.0361 1415.85L60.855 1414.35Z" fill="url(#paint81_linear_2_8)"/>
<path d="M0 1406.77V1458.58L59.0477 1404.39L45.3986 1329.17L0 1406.77Z" fill="url(#paint82_linear_2_8)"/>
<path d="M0 1464.6V1539.93L55.8392 1558.11L59.0361 1415.85L0 1464.6Z" fill="url(#paint83_linear_2_8)"/>
<path d="M59.0479 1404.39L59.2676 1405.6L59.2996 1404.17L59.0479 1404.39Z" fill="url(#paint84_linear_2_8)"/>
<path d="M0 1458.58V1464.6L59.0361 1415.85L59.2674 1405.6L59.0477 1404.39L0 1458.58Z" fill="url(#paint85_linear_2_8)"/>
<path d="M0 1458.58V1464.6L59.0361 1415.85L59.2674 1405.6L59.0477 1404.39L0 1458.58Z" fill="url(#paint86_linear_2_8)"/>
<path d="M0 165.675L112.882 452.901L214.093 433.165L0 139.754V165.675Z" fill="url(#paint87_linear_2_8)"/>
<path d="M0 452.901H112.882L0 165.675V452.901Z" fill="url(#paint88_linear_2_8)"/>
<path d="M127.341 464.743L214.095 433.163L112.88 452.901L127.341 464.743Z" fill="url(#paint89_linear_2_8)"/>
<path d="M0 452.901V457.285L122.52 488.422L112.882 452.901H0Z" fill="url(#paint90_linear_2_8)"/>
<path d="M112.88 452.901L122.521 488.422L127.341 464.743L112.88 452.901Z" fill="url(#paint91_linear_2_8)"/>
<path d="M243.011 504.213L214.095 433.163L127.341 464.742L243.011 504.213Z" fill="url(#paint92_linear_2_8)"/>
<path d="M122.52 488.422L243.011 504.213L127.341 464.742L122.52 488.422Z" fill="url(#paint93_linear_2_8)"/>
<path d="M146.613 531.841L243.011 504.213L122.52 488.422L146.613 531.841Z" fill="url(#paint94_linear_2_8)"/>
<path d="M228.554 646.317L243.011 504.213L146.613 531.842L228.554 646.317Z" fill="url(#paint95_linear_2_8)"/>
<path d="M0 732.102V741.443L35.77 847.621L228.554 646.317L0 732.102Z" fill="url(#paint96_linear_2_8)"/>
<path d="M45.3998 910.769L228.554 646.316L35.7698 847.621L45.3998 910.769Z" fill="url(#paint97_linear_2_8)"/>
<path d="M0 832.97L35.77 847.621L0 741.443V832.97Z" fill="url(#paint98_linear_2_8)"/>
<path d="M0 857.318L45.3986 910.77L35.77 847.621L0 832.97V857.318Z" fill="url(#paint99_linear_2_8)"/>
<path d="M389.054 -0.00119019L604.496 152.917L630.755 -0.00119019H389.054Z" fill="url(#paint100_linear_2_8)"/>
<path d="M294.608 -0.00131226L382.783 70.0254L387.537 -0.00131226H294.608Z" fill="url(#paint101_linear_2_8)"/>
<path d="M387.538 -0.00119019L382.784 70.0255L604.496 152.917L389.054 -0.00119019H387.538Z" fill="url(#paint102_linear_2_8)"/>
<path d="M0 -0.00138092V94.6069L140.28 -0.00138092H0Z" fill="url(#paint103_linear_2_8)"/>
<path d="M0 696.944L146.613 531.842L0 528.314V696.944Z" fill="url(#paint104_linear_2_8)"/>
<path d="M0 696.943V703.608L228.554 646.316L146.613 531.841L0 696.943Z" fill="url(#paint105_linear_2_8)"/>
<path d="M0 703.608V732.102L228.554 646.316L0 703.608Z" fill="url(#paint106_linear_2_8)"/>
<path d="M0 878.612L45.3986 910.77L0 857.318V878.612Z" fill="url(#paint107_linear_2_8)"/>
<path d="M0 920.435L10.5541 910.77L21.2071 930.253L45.3986 910.77L0 878.612L0 920.435Z" fill="url(#paint108_linear_2_8)"/>
<path d="M0 920.435V947.332L21.2071 930.253L10.5541 910.77L0 920.435Z" fill="url(#paint109_linear_2_8)"/>
<path d="M0 920.435V947.332L21.2071 930.253L10.5541 910.77L0 920.435Z" fill="url(#paint110_linear_2_8)"/>
</g>
<defs>
<linearGradient id="paint0_linear_2_8" x1="1954.33" y1="3503.29" x2="1783.65" y2="3294.88" gradientUnits="userSpaceOnUse">
<stop stop-color="#85B8EE"/>
<stop offset="1" stop-color="#86B8EE"/>
</linearGradient>
<linearGradient id="paint1_linear_2_8" x1="1843.59" y1="3259.69" x2="1586.34" y2="3122.26" gradientUnits="userSpaceOnUse">
<stop stop-color="white"/>
<stop offset="1" stop-color="#DFECFA"/>
</linearGradient>
<linearGradient id="paint2_linear_2_8" x1="1520.09" y1="3262.19" x2="1355.57" y2="3145" gradientUnits="userSpaceOnUse">
<stop stop-color="white"/>
<stop offset="1" stop-color="white"/>
</linearGradient>
<linearGradient id="paint3_linear_2_8" x1="1750.25" y1="3329.08" x2="1510.97" y2="3154.89" gradientUnits="userSpaceOnUse">
<stop stop-color="#4290E4"/>
<stop offset="1" stop-color="#AACDF3"/>
</linearGradient>
<linearGradient id="paint4_linear_2_8" x1="1566.83" y1="3291.72" x2="1460.62" y2="3191.51" gradientUnits="userSpaceOnUse">
<stop stop-color="#FDFEFF"/>
<stop offset="1" stop-color="#E7F1FC"/>
</linearGradient>
<linearGradient id="paint5_linear_2_8" x1="2599.89" y1="3252.22" x2="2457.44" y2="2904.34" gradientUnits="userSpaceOnUse">
<stop stop-color="#C2DBF6"/>
<stop offset="1" stop-color="#CEE2F8"/>
</linearGradient>
<linearGradient id="paint6_linear_2_8" x1="2510.67" y1="3169.06" x2="2068.39" y2="2675.97" gradientUnits="userSpaceOnUse">
<stop stop-color="#E0EDFB"/>
<stop offset="1" stop-color="white"/>
</linearGradient>
<linearGradient id="paint7_linear_2_8" x1="1630.72" y1="3212" x2="1486.89" y2="3104.36" gradientUnits="userSpaceOnUse">
<stop stop-color="#EEF5FD"/>
<stop offset="1" stop-color="white"/>
</linearGradient>
<linearGradient id="paint8_linear_2_8" x1="1650.24" y1="3225.2" x2="1530.68" y2="3173.67" gradientUnits="userSpaceOnUse">
<stop stop-color="#EEF5FD"/>
<stop offset="1" stop-color="white"/>
</linearGradient>
<linearGradient id="paint9_linear_2_8" x1="1651.7" y1="3159.36" x2="1583.87" y2="2993.72" gradientUnits="userSpaceOnUse">
<stop stop-color="white"/>
<stop offset="1" stop-color="white"/>
</linearGradient>
<linearGradient id="paint10_linear_2_8" x1="1578.06" y1="3123.43" x2="1488.24" y2="2921.63" gradientUnits="userSpaceOnUse">
<stop stop-color="white"/>
<stop offset="1" stop-color="white"/>
</linearGradient>
<linearGradient id="paint11_linear_2_8" x1="1458.81" y1="3665.81" x2="1137.36" y2="3406.06" gradientUnits="userSpaceOnUse">
<stop stop-color="white"/>
<stop offset="1" stop-color="#EAF3FC"/>
</linearGradient>
<linearGradient id="paint12_linear_2_8" x1="1366.82" y1="3549.95" x2="1178.24" y2="3361.01" gradientUnits="userSpaceOnUse">
<stop stop-color="white"/>
<stop offset="1" stop-color="#E9F2FC"/>
</linearGradient>
<linearGradient id="paint13_linear_2_8" x1="2823.94" y1="2286.51" x2="2623.21" y2="1920.92" gradientUnits="userSpaceOnUse">
<stop stop-color="white"/>
<stop offset="1" stop-color="#EEF5FD"/>
</linearGradient>
<linearGradient id="paint14_linear_2_8" x1="2731.51" y1="2149.73" x2="2564.92" y2="1798.73" gradientUnits="userSpaceOnUse">
<stop stop-color="white"/>
<stop offset="1" stop-color="#E7F1FC"/>
</linearGradient>
<linearGradient id="paint15_linear_2_8" x1="2557.91" y1="2596.88" x2="2531.57" y2="2497.48" gradientUnits="userSpaceOnUse">
<stop stop-color="#E7F1FC"/>
<stop offset="1" stop-color="#E2EEFB"/>
</linearGradient>
<linearGradient id="paint16_linear_2_8" x1="2560.46" y1="2644.36" x2="2483.9" y2="2501.68" gradientUnits="userSpaceOnUse">
<stop stop-color="#F1F7FD"/>
<stop offset="1" stop-color="#E5F0FB"/>
</linearGradient>
<linearGradient id="paint17_linear_2_8" x1="1500.82" y1="3729.41" x2="1236.9" y2="3596.71" gradientUnits="userSpaceOnUse">
<stop stop-color="#F6FAFE"/>
<stop offset="1" stop-color="#B6D4F5"/>
</linearGradient>
<linearGradient id="paint18_linear_2_8" x1="2610.07" y1="3017" x2="2217.21" y2="2746.81" gradientUnits="userSpaceOnUse">
<stop stop-color="#B9D6F5"/>
<stop offset="1" stop-color="#F4F9FE"/>
</linearGradient>
<linearGradient id="paint19_linear_2_8" x1="2598.75" y1="3016.52" x2="2312.32" y2="2903.95" gradientUnits="userSpaceOnUse">
<stop stop-color="#ADCFF3"/>
<stop offset="1" stop-color="#E6F1FC"/>
</linearGradient>
<linearGradient id="paint20_linear_2_8" x1="2413.44" y1="2660.87" x2="2391.44" y2="2590.37" gradientUnits="userSpaceOnUse">
<stop stop-color="white"/>
<stop offset="1" stop-color="#F7FAFE"/>
</linearGradient>
<linearGradient id="paint21_linear_2_8" x1="2537.46" y1="2645.45" x2="2516.68" y2="2563.69" gradientUnits="userSpaceOnUse">
<stop stop-color="#E2EEFB"/>
<stop offset="1" stop-color="#ECF4FC"/>
</linearGradient>
<linearGradient id="paint22_linear_2_8" x1="2416.41" y1="2638.95" x2="2386.01" y2="2626.57" gradientUnits="userSpaceOnUse">
<stop stop-color="#F4F9FE"/>
<stop offset="1" stop-color="#F4F8FD"/>
</linearGradient>
<linearGradient id="paint23_linear_2_8" x1="2389.31" y1="2666.12" x2="2311.67" y2="2539.72" gradientUnits="userSpaceOnUse">
<stop stop-color="white"/>
<stop offset="1" stop-color="white"/>
</linearGradient>
<linearGradient id="paint24_linear_2_8" x1="2426.75" y1="2614.04" x2="2398.14" y2="2526.7" gradientUnits="userSpaceOnUse">
<stop stop-color="#F7FAFE"/>
<stop offset="1" stop-color="white"/>
</linearGradient>
<linearGradient id="paint25_linear_2_8" x1="2412.12" y1="2589.62" x2="2378.19" y2="2495.47" gradientUnits="userSpaceOnUse">
<stop stop-color="#F4F9FE"/>
<stop offset="1" stop-color="white"/>
</linearGradient>
<linearGradient id="paint26_linear_2_8" x1="2352.79" y1="2607.53" x2="2191.03" y2="2497.8" gradientUnits="userSpaceOnUse">
<stop stop-color="#FCFDFF"/>
<stop offset="1" stop-color="white"/>
</linearGradient>
<linearGradient id="paint27_linear_2_8" x1="2529.86" y1="2424.01" x2="2285.61" y2="2143.31" gradientUnits="userSpaceOnUse">
<stop stop-color="white"/>
<stop offset="1" stop-color="#E8F2FC"/>
</linearGradient>
<linearGradient id="paint28_linear_2_8" x1="1656.18" y1="3075.36" x2="1591.35" y2="3055.57" gradientUnits="userSpaceOnUse">
<stop stop-color="white"/>
<stop offset="1" stop-color="white"/>
</linearGradient>
<linearGradient id="paint29_linear_2_8" x1="1716.79" y1="3052.33" x2="1640.02" y2="2849.24" gradientUnits="userSpaceOnUse">
<stop stop-color="white"/>
<stop offset="1" stop-color="white"/>
</linearGradient>
<linearGradient id="paint30_linear_2_8" x1="1797.83" y1="3071.7" x2="1707.26" y2="2924.24" gradientUnits="userSpaceOnUse">
<stop stop-color="white"/>
<stop offset="1" stop-color="white"/>
</linearGradient>
<linearGradient id="paint31_linear_2_8" x1="2305.54" y1="2652.63" x2="2229.36" y2="2523.44" gradientUnits="userSpaceOnUse">
<stop stop-color="white"/>
<stop offset="1" stop-color="white"/>
</linearGradient>
<linearGradient id="paint32_linear_2_8" x1="2032.77" y1="3359.48" x2="1723.42" y2="3040.77" gradientUnits="userSpaceOnUse">
<stop stop-color="#82B6ED"/>
<stop offset="1" stop-color="#C3DCF6"/>
</linearGradient>
<linearGradient id="paint33_linear_2_8" x1="2255.32" y1="3279.75" x2="2105.68" y2="3085.6" gradientUnits="userSpaceOnUse">
<stop stop-color="#B4D3F4"/>
<stop offset="1" stop-color="#C3DCF6"/>
</linearGradient>
<linearGradient id="paint34_linear_2_8" x1="2117.1" y1="3170.7" x2="1940.4" y2="2916.21" gradientUnits="userSpaceOnUse">
<stop stop-color="#D9E9FA"/>
<stop offset="1" stop-color="#DDEBFA"/>
</linearGradient>
<linearGradient id="paint35_linear_2_8" x1="2567.1" y1="3273.84" x2="2546.44" y2="3151.62" gradientUnits="userSpaceOnUse">
<stop stop-color="#A7CBF2"/>
<stop offset="1" stop-color="#A2C9F2"/>
</linearGradient>
<linearGradient id="paint36_linear_2_8" x1="2578.54" y1="3300.21" x2="2407.71" y2="2987.3" gradientUnits="userSpaceOnUse">
<stop stop-color="#BFDAF6"/>
<stop offset="1" stop-color="#C9DFF7"/>
</linearGradient>
<linearGradient id="paint37_linear_2_8" x1="2531.89" y1="2592.67" x2="2314.99" y2="2392.56" gradientUnits="userSpaceOnUse">
<stop stop-color="#BDD9F6"/>
<stop offset="1" stop-color="#D9E9FA"/>
</linearGradient>
<linearGradient id="paint38_linear_2_8" x1="2561.89" y1="2541.19" x2="2358.78" y2="2264.99" gradientUnits="userSpaceOnUse">
<stop stop-color="#F4F8FD"/>
<stop offset="1" stop-color="#FAFCFE"/>
</linearGradient>
<linearGradient id="paint39_linear_2_8" x1="2523.8" y1="2413.69" x2="2454.88" y2="2226.25" gradientUnits="userSpaceOnUse">
<stop stop-color="white"/>
<stop offset="1" stop-color="#DCEBFA"/>
</linearGradient>
<linearGradient id="paint40_linear_2_8" x1="1446.39" y1="3363.68" x2="1422.87" y2="3298.76" gradientUnits="userSpaceOnUse">
<stop stop-color="#9FC7F1"/>
<stop offset="1" stop-color="#F4F9FE"/>
</linearGradient>
<linearGradient id="paint41_linear_2_8" x1="2315.8" y1="3441.54" x2="2116.24" y2="3175.21" gradientUnits="userSpaceOnUse">
<stop stop-color="#207CDF"/>
<stop offset="1" stop-color="#85B8EE"/>
</linearGradient>
<linearGradient id="paint42_linear_2_8" x1="2020.66" y1="3393.52" x2="1965.24" y2="3239.37" gradientUnits="userSpaceOnUse">
<stop stop-color="#AFD0F4"/>
<stop offset="1" stop-color="#B6D4F5"/>
</linearGradient>
<linearGradient id="paint43_linear_2_8" x1="2105.6" y1="3352.17" x2="1959.16" y2="3083.94" gradientUnits="userSpaceOnUse">
<stop stop-color="#5EA1E8"/>
<stop offset="1" stop-color="#8DBCEF"/>
</linearGradient>
<linearGradient id="paint44_linear_2_8" x1="2254.93" y1="3382.33" x2="2098.2" y2="3132.47" gradientUnits="userSpaceOnUse">
<stop stop-color="#84B7EE"/>
<stop offset="1" stop-color="#97C2F0"/>
</linearGradient>
<linearGradient id="paint45_linear_2_8" x1="2066.57" y1="3646.12" x2="1931.2" y2="3388.45" gradientUnits="userSpaceOnUse">
<stop stop-color="#3B8CE3"/>
<stop offset="1" stop-color="#4592E4"/>
</linearGradient>
<linearGradient id="paint46_linear_2_8" x1="2097.82" y1="3622.41" x2="1915.03" y2="3365.72" gradientUnits="userSpaceOnUse">
<stop stop-color="#207CDF"/>
<stop offset="1" stop-color="#4B95E5"/>
</linearGradient>
<linearGradient id="paint47_linear_2_8" x1="2303.02" y1="3614.23" x2="2118.95" y2="3361.36" gradientUnits="userSpaceOnUse">
<stop stop-color="#398BE3"/>
<stop offset="1" stop-color="#3B8CE3"/>
</linearGradient>
<linearGradient id="paint48_linear_2_8" x1="1983.81" y1="3487.64" x2="1920.28" y2="3341.1" gradientUnits="userSpaceOnUse">
<stop stop-color="#5A9EE7"/>
<stop offset="1" stop-color="#4E97E6"/>
</linearGradient>
<linearGradient id="paint49_linear_2_8" x1="2196.88" y1="3488.33" x2="2129.15" y2="3311.12" gradientUnits="userSpaceOnUse">
<stop stop-color="#5EA1E8"/>
<stop offset="1" stop-color="#82B6ED"/>
</linearGradient>
<linearGradient id="paint50_linear_2_8" x1="2007.49" y1="3448.13" x2="1953.98" y2="3430.93" gradientUnits="userSpaceOnUse">
<stop stop-color="#78B0EC"/>
<stop offset="1" stop-color="#7AB1EC"/>
</linearGradient>
<linearGradient id="paint51_linear_2_8" x1="2463.27" y1="3604.93" x2="2305.74" y2="3326.52" gradientUnits="userSpaceOnUse">
<stop stop-color="#2981E0"/>
<stop offset="1" stop-color="#207CDF"/>
</linearGradient>
<linearGradient id="paint52_linear_2_8" x1="2606.93" y1="3526.11" x2="2593.09" y2="3431.42" gradientUnits="userSpaceOnUse">
<stop stop-color="#2A82E1"/>
<stop offset="1" stop-color="#207CDF"/>
</linearGradient>
<linearGradient id="paint53_linear_2_8" x1="2362.99" y1="3548.27" x2="2157.91" y2="3442.33" gradientUnits="userSpaceOnUse">
<stop stop-color="#408FE4"/>
<stop offset="1" stop-color="#5A9FE8"/>
</linearGradient>
<linearGradient id="paint54_linear_2_8" x1="2588.79" y1="3583.18" x2="2377.42" y2="3291.41" gradientUnits="userSpaceOnUse">
<stop stop-color="#1F7ADB"/>
<stop offset="1" stop-color="#1E74CF"/>
</linearGradient>
<linearGradient id="paint55_linear_2_8" x1="2573.43" y1="3590.2" x2="2317.93" y2="3313.53" gradientUnits="userSpaceOnUse">
<stop stop-color="#1C6DC3"/>
<stop offset="1" stop-color="#207CDE"/>
</linearGradient>
<linearGradient id="paint56_linear_2_8" x1="2622.3" y1="3520.8" x2="2378.88" y2="3184.31" gradientUnits="userSpaceOnUse">
<stop stop-color="#8FBDEF"/>
<stop offset="1" stop-color="#4391E4"/>
</linearGradient>
<linearGradient id="paint57_linear_2_8" x1="1778.54" y1="3663.14" x2="1498.23" y2="3431.08" gradientUnits="userSpaceOnUse">
<stop stop-color="#B8D5F5"/>
<stop offset="1" stop-color="#86B8EE"/>
</linearGradient>
<linearGradient id="paint58_linear_2_8" x1="1685.31" y1="3645.93" x2="1367.68" y2="3357.98" gradientUnits="userSpaceOnUse">
<stop stop-color="#BAD7F5"/>
<stop offset="1" stop-color="#A8CCF3"/>
</linearGradient>
<linearGradient id="paint59_linear_2_8" x1="1808.34" y1="3604.93" x2="1603.33" y2="3460.29" gradientUnits="userSpaceOnUse">
<stop stop-color="#70ABEB"/>
<stop offset="1" stop-color="#8FBDEF"/>
</linearGradient>
<linearGradient id="paint60_linear_2_8" x1="1795.1" y1="3476.17" x2="1622.39" y2="3323.85" gradientUnits="userSpaceOnUse">
<stop stop-color="#65A5E9"/>
<stop offset="1" stop-color="#7DB3ED"/>
</linearGradient>
<linearGradient id="paint61_linear_2_8" x1="1611.64" y1="3428.84" x2="1501.55" y2="3201.72" gradientUnits="userSpaceOnUse">
<stop stop-color="#A1C8F1"/>
<stop offset="1" stop-color="#C9DFF7"/>
</linearGradient>
<linearGradient id="paint62_linear_2_8" x1="1755.04" y1="3426.29" x2="1561.91" y2="3243.53" gradientUnits="userSpaceOnUse">
<stop stop-color="#69A7E9"/>
<stop offset="1" stop-color="#8CBCEF"/>
</linearGradient>
<linearGradient id="paint63_linear_2_8" x1="1647.1" y1="3400.38" x2="1458.72" y2="3250.87" gradientUnits="userSpaceOnUse">
<stop stop-color="white"/>
<stop offset="1" stop-color="#BFDAF6"/>
</linearGradient>
<linearGradient id="paint64_linear_2_8" x1="579.46" y1="-52.6385" x2="789.44" y2="59.5371" gradientUnits="userSpaceOnUse">
<stop stop-color="white"/>
<stop offset="1" stop-color="#DFECFA"/>
</linearGradient>
<linearGradient id="paint65_linear_2_8" x1="649.538" y1="-101.984" x2="844.855" y2="40.1966" gradientUnits="userSpaceOnUse">
<stop stop-color="#4290E4"/>
<stop offset="1" stop-color="#AACDF3"/>
</linearGradient>
<linearGradient id="paint66_linear_2_8" x1="788.345" y1="-62.5289" x2="875.037" y2="19.2702" gradientUnits="userSpaceOnUse">
<stop stop-color="#FDFEFF"/>
<stop offset="1" stop-color="#E7F1FC"/>
</linearGradient>
<linearGradient id="paint67_linear_2_8" x1="-71.5671" y1="-35.9514" x2="44.7056" y2="248.004" gradientUnits="userSpaceOnUse">
<stop stop-color="#C2DBF6"/>
<stop offset="1" stop-color="#CEE2F8"/>
</linearGradient>
<linearGradient id="paint68_linear_2_8" x1="37.143" y1="17.2262" x2="398.159" y2="419.721" gradientUnits="userSpaceOnUse">
<stop stop-color="#E0EDFB"/>
<stop offset="1" stop-color="white"/>
</linearGradient>
<linearGradient id="paint69_linear_2_8" x1="755.414" y1="-17.8201" x2="872.812" y2="70.0406" gradientUnits="userSpaceOnUse">
<stop stop-color="#EEF5FD"/>
<stop offset="1" stop-color="white"/>
</linearGradient>
<linearGradient id="paint70_linear_2_8" x1="734.411" y1="-16.8545" x2="832.012" y2="25.2083" gradientUnits="userSpaceOnUse">
<stop stop-color="#EEF5FD"/>
<stop offset="1" stop-color="white"/>
</linearGradient>
<linearGradient id="paint71_linear_2_8" x1="-64.6865" y1="1266.94" x2="122.833" y2="1429.13" gradientUnits="userSpaceOnUse">
<stop stop-color="#FCFDFF"/>
<stop offset="1" stop-color="#E5F0FB"/>
</linearGradient>
<linearGradient id="paint72_linear_2_8" x1="-72.1529" y1="1520.02" x2="-19.8189" y2="1629.57" gradientUnits="userSpaceOnUse">
<stop stop-color="white"/>
<stop offset="1" stop-color="#F6FAFE"/>
</linearGradient>
<linearGradient id="paint73_linear_2_8" x1="-239.729" y1="894.345" x2="-49.2536" y2="1241.25" gradientUnits="userSpaceOnUse">
<stop stop-color="white"/>
<stop offset="1" stop-color="#EEF5FD"/>
</linearGradient>
<linearGradient id="paint74_linear_2_8" x1="-180.845" y1="1099.13" x2="-32.8813" y2="1410.88" gradientUnits="userSpaceOnUse">
<stop stop-color="white"/>
<stop offset="1" stop-color="#E7F1FC"/>
</linearGradient>
<linearGradient id="paint75_linear_2_8" x1="-15.5493" y1="488.017" x2="5.94959" y2="569.158" gradientUnits="userSpaceOnUse">
<stop stop-color="#E7F1FC"/>
<stop offset="1" stop-color="#E2EEFB"/>
</linearGradient>
<linearGradient id="paint76_linear_2_8" x1="-27.2218" y1="458.248" x2="35.2674" y2="574.712" gradientUnits="userSpaceOnUse">
<stop stop-color="#F1F7FD"/>
<stop offset="1" stop-color="#E5F0FB"/>
</linearGradient>
<linearGradient id="paint77_linear_2_8" x1="-222.943" y1="1126.02" x2="18.4089" y2="1411.22" gradientUnits="userSpaceOnUse">
<stop stop-color="#91BEEF"/>
<stop offset="1" stop-color="#AACDF3"/>
</linearGradient>
<linearGradient id="paint78_linear_2_8" x1="-314.786" y1="1162.7" x2="-166.822" y2="1474.45" gradientUnits="userSpaceOnUse">
<stop stop-color="white"/>
<stop offset="1" stop-color="#E7F1FC"/>
</linearGradient>
<linearGradient id="paint79_linear_2_8" x1="-219.406" y1="1123.03" x2="21.9453" y2="1408.23" gradientUnits="userSpaceOnUse">
<stop stop-color="#91BEEF"/>
<stop offset="1" stop-color="#AACDF3"/>
</linearGradient>
<linearGradient id="paint80_linear_2_8" x1="-127.845" y1="1262.83" x2="21.5397" y2="1513.11" gradientUnits="userSpaceOnUse">
<stop stop-color="#ECF4FC"/>
<stop offset="1" stop-color="#A8CCF3"/>
</linearGradient>
<linearGradient id="paint81_linear_2_8" x1="-24.4381" y1="1319.45" x2="109.867" y2="1442.45" gradientUnits="userSpaceOnUse">
<stop stop-color="#F4F9FE"/>
<stop offset="1" stop-color="#F4F9FE"/>
</linearGradient>
<linearGradient id="paint82_linear_2_8" x1="-34.9479" y1="1330.93" x2="99.3575" y2="1453.92" gradientUnits="userSpaceOnUse">
<stop stop-color="#F4F9FE"/>
<stop offset="1" stop-color="#F4F9FE"/>
</linearGradient>
<linearGradient id="paint83_linear_2_8" x1="-48.5488" y1="1408.63" x2="73.3756" y2="1546.06" gradientUnits="userSpaceOnUse">
<stop stop-color="#F8FBFE"/>
<stop offset="1" stop-color="white"/>
</linearGradient>
<linearGradient id="paint84_linear_2_8" x1="7.4813" y1="1358.92" x2="129.407" y2="1496.35" gradientUnits="userSpaceOnUse">
<stop stop-color="#F8FBFE"/>
<stop offset="1" stop-color="white"/>
</linearGradient>
<linearGradient id="paint85_linear_2_8" x1="-50.1361" y1="1347.51" x2="84.1691" y2="1470.51" gradientUnits="userSpaceOnUse">
<stop stop-color="#F4F9FE"/>
<stop offset="1" stop-color="#F4F9FE"/>
</linearGradient>
<linearGradient id="paint86_linear_2_8" x1="-24.0877" y1="1386.93" x2="97.8366" y2="1524.36" gradientUnits="userSpaceOnUse">
<stop stop-color="#F8FBFE"/>
<stop offset="1" stop-color="white"/>
</linearGradient>
<linearGradient id="paint87_linear_2_8" x1="-43.9874" y1="141.352" x2="276.686" y2="361.89" gradientUnits="userSpaceOnUse">
<stop stop-color="#B9D6F5"/>
<stop offset="1" stop-color="#F4F9FE"/>
</linearGradient>
<linearGradient id="paint88_linear_2_8" x1="-50.2964" y1="181.299" x2="183.508" y2="273.181" gradientUnits="userSpaceOnUse">
<stop stop-color="#ADCFF3"/>
<stop offset="1" stop-color="#E6F1FC"/>
</linearGradient>
<linearGradient id="paint89_linear_2_8" x1="116.509" y1="432.041" x2="134.464" y2="489.593" gradientUnits="userSpaceOnUse">
<stop stop-color="white"/>
<stop offset="1" stop-color="#F7FAFE"/>
</linearGradient>
<linearGradient id="paint90_linear_2_8" x1="15.2795" y1="444.632" x2="32.2407" y2="511.366" gradientUnits="userSpaceOnUse">
<stop stop-color="#E2EEFB"/>
<stop offset="1" stop-color="#ECF4FC"/>
</linearGradient>
<linearGradient id="paint91_linear_2_8" x1="114.086" y1="449.938" x2="138.895" y2="460.036" gradientUnits="userSpaceOnUse">
<stop stop-color="#F4F9FE"/>
<stop offset="1" stop-color="#F4F8FD"/>
</linearGradient>
<linearGradient id="paint92_linear_2_8" x1="136.208" y1="427.756" x2="199.578" y2="530.93" gradientUnits="userSpaceOnUse">
<stop stop-color="white"/>
<stop offset="1" stop-color="white"/>
</linearGradient>
<linearGradient id="paint93_linear_2_8" x1="105.647" y1="470.265" x2="129" y2="541.555" gradientUnits="userSpaceOnUse">
<stop stop-color="#F7FAFE"/>
<stop offset="1" stop-color="white"/>
</linearGradient>
<linearGradient id="paint94_linear_2_8" x1="117.585" y1="490.199" x2="145.279" y2="567.055" gradientUnits="userSpaceOnUse">
<stop stop-color="#F4F9FE"/>
<stop offset="1" stop-color="white"/>
</linearGradient>
<linearGradient id="paint95_linear_2_8" x1="166.014" y1="475.576" x2="298.054" y2="565.149" gradientUnits="userSpaceOnUse">
<stop stop-color="#FCFDFF"/>
<stop offset="1" stop-color="white"/>
</linearGradient>
<linearGradient id="paint96_linear_2_8" x1="6.95071" y1="638.017" x2="206.323" y2="867.145" gradientUnits="userSpaceOnUse">
<stop stop-color="white"/>
<stop offset="1" stop-color="#E8F2FC"/>
</linearGradient>
<linearGradient id="paint97_linear_2_8" x1="38.1615" y1="642.993" x2="289.907" y2="826.516" gradientUnits="userSpaceOnUse">
<stop stop-color="white"/>
<stop offset="1" stop-color="#FCFDFF"/>
</linearGradient>
<linearGradient id="paint98_linear_2_8" x1="-31.8105" y1="733.244" x2="68.3498" y2="792.286" gradientUnits="userSpaceOnUse">
<stop stop-color="#DEECFA"/>
<stop offset="1" stop-color="#F8FBFE"/>
</linearGradient>
<linearGradient id="paint99_linear_2_8" x1="-20.7111" y1="807.034" x2="68.8755" y2="883.133" gradientUnits="userSpaceOnUse">
<stop stop-color="#FDFEFF"/>
<stop offset="1" stop-color="#FAFCFE"/>
</linearGradient>
<linearGradient id="paint100_linear_2_8" x1="397.375" y1="-109.224" x2="649.886" y2="150.933" gradientUnits="userSpaceOnUse">
<stop stop-color="#82B6ED"/>
<stop offset="1" stop-color="#C3DCF6"/>
</linearGradient>
<linearGradient id="paint101_linear_2_8" x1="245.223" y1="-72.8485" x2="367.367" y2="85.6192" gradientUnits="userSpaceOnUse">
<stop stop-color="#B4D3F4"/>
<stop offset="1" stop-color="#C3DCF6"/>
</linearGradient>
<linearGradient id="paint102_linear_2_8" x1="358.389" y1="15.8966" x2="502.623" y2="223.629" gradientUnits="userSpaceOnUse">
<stop stop-color="#D9E9FA"/>
<stop offset="1" stop-color="#DDEBFA"/>
</linearGradient>
<linearGradient id="paint103_linear_2_8" x1="-99.6432" y1="-45.3939" x2="39.8056" y2="210.022" gradientUnits="userSpaceOnUse">
<stop stop-color="#BFDAF6"/>
<stop offset="1" stop-color="#C9DFF7"/>
</linearGradient>
<linearGradient id="paint104_linear_2_8" x1="-11.873" y1="522.066" x2="165.175" y2="685.409" gradientUnits="userSpaceOnUse">
<stop stop-color="#BDD9F6"/>
<stop offset="1" stop-color="#D9E9FA"/>
</linearGradient>
<linearGradient id="paint105_linear_2_8" x1="-25.5106" y1="545.056" x2="140.284" y2="770.509" gradientUnits="userSpaceOnUse">
<stop stop-color="#F4F8FD"/>
<stop offset="1" stop-color="#FAFCFE"/>
</linearGradient>
<linearGradient id="paint106_linear_2_8" x1="-4.98542" y1="645.357" x2="51.2693" y2="798.351" gradientUnits="userSpaceOnUse">
<stop stop-color="white"/>
<stop offset="1" stop-color="#DCEBFA"/>
</linearGradient>
<linearGradient id="paint107_linear_2_8" x1="-125.414" y1="779.138" x2="-6.2637" y2="947.362" gradientUnits="userSpaceOnUse">
<stop stop-color="#F8FBFE"/>
<stop offset="1" stop-color="#F4F8FD"/>
</linearGradient>
<linearGradient id="paint108_linear_2_8" x1="-163.244" y1="684.645" x2="187.667" y2="967.165" gradientUnits="userSpaceOnUse">
<stop stop-color="#FCFDFF"/>
<stop offset="1" stop-color="#E2EEFB"/>
</linearGradient>
<linearGradient id="paint109_linear_2_8" x1="-148.815" y1="844.443" x2="41.6594" y2="1191.35" gradientUnits="userSpaceOnUse">
<stop stop-color="white"/>
<stop offset="1" stop-color="#EEF5FD"/>
</linearGradient>
<linearGradient id="paint110_linear_2_8" x1="-177.369" y1="702.19" x2="173.542" y2="984.71" gradientUnits="userSpaceOnUse">
<stop stop-color="#FCFDFF"/>
<stop offset="1" stop-color="#E2EEFB"/>
</linearGradient>
<clipPath id="clip0_2_8">
<rect width="2480" height="3508" fill="white"/>
</clipPath>
</defs>
</svg>
