<svg xmlns="http://www.w3.org/2000/svg" xmlns:xlink="http://www.w3.org/1999/xlink" x="0px" y="0px" viewBox="0 0 1024 212" style="enable-background:new 0 0 1024 212;" xml:space="preserve"><path d="M55.5489 129.086C55.0223 127.663 54.8345 126.137 55.0004 124.63V7.85938H20.6111V36.8274H0V66.0199H20.6111V124.405C20.6111 150.162 36.5695 162.131 63.092 162.131H82.8715V135.633H68.2616C63.4741 135.633 60.0577 134.69 58.0348 132.826C56.9267 131.789 56.0757 130.508 55.5489 129.086Z" fill="#01010D"></path><path fill-rule="evenodd" clip-rule="evenodd" d="M153.688 165.5C142.758 165.689 131.95 163.183 122.221 158.202C113.246 153.566 105.737 146.53 100.531 137.879C95.2343 128.99 92.5109 118.806 92.6641 108.462C92.4785 98.356 95.0604 88.3915 100.131 79.6451C105.201 70.8985 112.568 63.7026 121.434 58.8347C130.587 53.8152 140.889 51.2614 151.328 51.4243C161.25 51.2363 171.05 53.6356 179.761 58.3856C187.895 62.9154 194.623 69.5973 199.204 77.6975C204.025 86.338 206.468 96.101 206.284 105.992C206.281 108.092 206.169 110.191 205.947 112.279C205.686 114.768 205.296 117.242 204.778 119.69L126.462 119.877C126.974 121.537 127.606 123.164 128.357 124.742C130.539 129.159 133.98 132.831 138.247 135.297C142.884 137.859 148.121 139.138 153.419 139.002C158.429 139.074 163.402 138.118 168.028 136.195C172.433 134.282 176.351 131.404 179.492 127.774L198.372 146.637C193.082 152.849 186.375 157.701 178.817 160.784C170.833 163.99 162.293 165.593 153.688 165.5ZM128.132 91.8447C127.481 93.2937 126.925 94.779 126.466 96.2911L174.247 96.1562C173.782 94.1571 173.169 92.1904 172.411 90.2728C170.752 86.3998 167.923 83.1415 164.32 80.9536C160.404 78.6757 155.924 77.5471 151.396 77.6975C146.456 77.5766 141.584 78.8617 137.348 81.4027C133.332 83.9229 130.132 87.5492 128.132 91.8447Z" fill="#01010D"></path><path d="M246.24 158.089C255.622 163.082 266.112 165.63 276.741 165.5C284.866 165.724 292.954 164.311 300.521 161.345C307.832 158.196 314.413 153.57 319.851 147.76L298.048 125.753C295.57 128.616 292.503 130.914 289.058 132.49C285.253 134.078 281.155 134.843 277.033 134.735C272.464 134.794 267.964 133.631 263.996 131.367C260.218 129.171 257.109 125.988 255.006 122.16C252.768 118.027 251.645 113.384 251.747 108.687C251.616 103.986 252.741 99.3353 255.006 95.2131C257.126 91.4558 260.235 88.3495 263.996 86.2308C268.015 84.0059 272.551 82.8826 277.145 82.9747C281.097 82.9053 285.026 83.5913 288.721 84.9956C292.174 86.3498 295.256 88.505 297.711 91.2834L319.738 69.2766C314.419 63.5934 307.943 59.114 300.746 56.14C293.287 53.1167 285.306 51.5906 277.258 51.6488C266.532 51.4874 255.94 54.0364 246.465 59.0592C237.569 63.7561 230.084 70.731 224.775 79.2694C219.412 88.0537 216.646 98.174 216.795 108.462C216.652 118.641 219.326 128.662 224.521 137.419C229.717 146.176 237.233 153.329 246.24 158.089Z" fill="#01010D"></path><path d="M329.905 163.029V16.0478L364.362 0V61.973C366.542 60.0243 368.954 58.3275 371.555 56.9254C378.401 53.3021 386.06 51.4856 393.806 51.6483C401.626 51.473 409.361 53.2891 416.283 56.9254C422.547 60.2799 427.731 65.3414 431.23 71.5216C434.851 78.1618 436.672 85.6317 436.512 93.1915V163.029H402.055V100.827C402.158 98.2871 401.742 95.7533 400.834 93.3793C399.926 91.0051 398.545 88.8403 396.773 87.0162C395.023 85.2713 392.933 83.9029 390.633 82.9953C388.333 82.0877 385.871 81.6602 383.4 81.7391C379.955 81.6629 376.549 82.475 373.51 84.097C370.667 85.6564 368.328 87.9934 366.767 90.8337C365.267 93.5872 364.445 96.6527 364.362 99.7767V163.029H329.905Z" fill="#01010D"></path><path d="M82.1972 69.6436C92.128 69.6436 100.178 61.5937 100.178 51.6636C100.178 41.7335 92.128 33.6836 82.1972 33.6836C72.2663 33.6836 64.2158 41.7335 64.2158 51.6636C64.2158 61.5937 72.2663 69.6436 82.1972 69.6436Z" fill="#D00C24"></path><path fill-rule="evenodd" clip-rule="evenodd" d="M472.198 152.476C480.258 157.339 489.53 159.83 498.945 159.661C505.84 159.793 512.677 158.373 518.949 155.507C521.799 154.188 524.462 152.524 526.883 150.563V157.416C527.07 160.73 526.511 164.044 525.247 167.115C523.983 170.185 522.046 172.932 519.578 175.156C514.708 179.348 508.003 181.444 499.462 181.444C493.359 181.631 487.296 180.402 481.75 177.851C476.674 175.295 472.194 171.698 468.601 167.296L447.473 188.405C452.906 196.053 460.329 202.071 468.938 205.808C478.9 210.105 489.67 212.211 500.518 211.983C511.362 212.194 522.098 209.807 531.828 205.022C540.642 200.661 548.102 193.985 553.406 185.71C558.794 176.942 561.526 166.803 561.273 156.518V53.8946H527.558V61.19C524.995 59.0246 522.138 57.2093 519.061 55.8033C512.744 52.9558 505.875 51.5372 498.945 51.6491C489.71 51.4523 480.602 53.8132 472.628 58.4704C464.654 63.1274 458.126 69.8989 453.767 78.0346C449.203 86.4776 446.881 95.9484 447.024 105.543C446.907 115.099 449.227 124.527 453.767 132.939C458.063 140.973 464.425 147.716 472.198 152.476ZM517.938 125.978C514.143 128.139 509.83 129.226 505.463 129.122C501.096 129.232 496.781 128.144 492.989 125.978C489.495 123.923 486.652 120.927 484.785 117.332C482.844 113.707 481.839 109.654 481.863 105.543C481.794 101.319 482.8 97.1469 484.785 93.4168C486.699 89.8479 489.581 86.8904 493.101 84.8836C496.914 82.8199 501.183 81.7392 505.519 81.7392C509.856 81.7392 514.124 82.8199 517.938 84.8836C521.384 86.912 524.188 89.8694 526.029 93.4168C527.937 97.1711 528.901 101.333 528.839 105.543C528.91 109.718 527.944 113.845 526.029 117.557C524.164 121.058 521.363 123.973 517.938 125.978Z" fill="#D00C24"></path><path fill-rule="evenodd" clip-rule="evenodd" d="M632.921 165.499C621.99 165.689 611.182 163.182 601.453 158.201C592.479 153.565 584.969 146.529 579.763 137.878C574.456 128.994 571.732 118.807 571.897 108.461C571.711 98.3552 574.293 88.3908 579.363 79.6443C584.434 70.8978 591.8 63.7019 600.667 58.8339C609.818 53.8125 620.121 51.2585 630.561 51.4235C640.521 51.2159 650.362 53.6158 659.106 58.3848C667.235 62.921 673.961 69.6016 678.548 77.6967C683.37 86.3372 685.813 96.1002 685.629 105.991C685.622 108.054 685.51 110.115 685.291 112.166C685.067 114.412 684.64 116.837 684.055 119.689L605.689 119.876C606.202 121.537 606.836 123.163 607.59 124.742C609.771 129.158 613.212 132.83 617.479 135.296C622.116 137.858 627.354 139.138 632.651 139.001C637.662 139.071 642.634 138.116 647.261 136.194C651.666 134.281 655.583 131.403 658.724 127.773L677.604 146.636C672.314 152.848 665.608 157.7 658.05 160.783C650.064 163.988 641.526 165.59 632.921 165.499ZM605.698 96.2904C606.157 94.7783 606.714 93.293 607.365 91.844C609.357 87.5433 612.559 83.9151 616.58 81.402C620.849 78.7902 625.781 77.4647 630.785 77.5845C635.314 77.4366 639.793 78.565 643.71 80.8406C647.28 83.0859 650.067 86.3805 651.689 90.272C652.446 92.1896 653.059 94.1563 653.524 96.1554L605.698 96.2904Z" fill="#D00C24"></path><path d="M731.039 53.8945H696.649V163.03H731.039V100.014C731.105 96.8027 731.951 93.6517 733.511 90.8343C735.072 87.9941 737.411 85.6571 740.254 84.0976C743.293 82.4756 746.699 81.6636 750.144 81.7398C752.616 81.6608 755.077 82.0883 757.377 82.9959C759.677 83.9035 761.767 85.2719 763.518 87.0168C765.289 88.8409 766.67 91.0058 767.578 93.3799C768.486 95.7539 768.902 98.2878 768.8 100.827V163.03H803.256V93.1922C803.319 85.9502 801.457 78.8214 797.862 72.5328C794.323 66.3126 789.256 61.096 783.14 57.3751C776.665 53.4891 769.226 51.5046 761.674 51.6489C753.824 51.5135 746.062 53.3268 739.085 56.926C736.161 58.4378 733.46 60.3114 731.039 62.4913V53.8945Z" fill="#D00C24"></path><path d="M856.129 209.064L875.459 163.479L922.21 53.8945H885.124L862.839 120.171L841.069 53.8945H803.983L845.676 155.531L820.84 209.064H856.129Z" fill="#D00C24"></path><path d="M975.227 82.6379L927.351 142.819V163.03H1022.65V134.286H976.005L1024 73.8802V53.8945H931.396V82.6379H975.227Z" fill="#D00C24"></path></svg>