<svg xmlns="http://www.w3.org/2000/svg" viewBox="0 0 120 120" role="img" aria-label="Dummy person portrait">
  <defs>
    <linearGradient id="bg" x1="0%" y1="0%" x2="100%" y2="100%">
      <stop offset="0%" stop-color="#E9F2FF" />
      <stop offset="100%" stop-color="#C9D8FF" />
    </linearGradient>
  </defs>
  <rect width="120" height="120" rx="60" fill="url(#bg)" />
  <circle cx="60" cy="120" r="44" fill="#4F67D6" />
  <ellipse cx="60" cy="52" rx="24" ry="28" fill="#F3C7A6" />
  <path d="M35 49c0-16 11-29 25-29 13 0 25 8 25 27 0 3-1 5-2 8-5-7-11-12-19-12-10 0-18 6-27 13-1-3-2-5-2-7z" fill="#3A2B2A" />
  <path d="M47 78c4 6 9 8 13 8s9-2 13-8v9c0 8-6 14-13 14s-13-6-13-14z" fill="#E7B58C" />
  <path d="M52 61c2 0 4 2 4 4s-2 4-4 4-4-2-4-4 2-4 4-4zm16 0c2 0 4 2 4 4s-2 4-4 4-4-2-4-4 2-4 4-4z" fill="#2C211F" />
  <path d="M53 74c2 3 5 4 7 4s5-1 7-4" fill="none" stroke="#A45D4F" stroke-linecap="round" stroke-width="2.5" />
</svg>
